<svg xmlns="http://www.w3.org/2000/svg" style="display: none;">
  
    <symbol id="icon-icons" viewBox="0 0 512 512">
      <path d="m426 378c0 7-3 14-8 19l-39 39c-5 5-12 8-20 8-7 0-14-3-19-8l-84-84-84 84c-5 5-12 8-19 8-8 0-15-3-20-8l-39-39c-5-5-8-12-8-19 0-8 3-14 8-20l84-84-84-84c-5-5-8-12-8-19 0-8 3-14 8-20l39-38c5-6 12-8 20-8 7 0 14 2 19 8l84 84 84-84c5-6 12-8 19-8 8 0 15 2 20 8l39 38c5 6 8 12 8 20 0 7-3 14-8 19l-84 84 84 84c5 6 8 12 8 20z"/>
    </symbol>
  
    <symbol id="icon-basket" viewBox="0 0 512 512">
      <path d="m427 320c8 0 17-6 19-15l64-192c4-6 2-13-2-19-5-4-11-9-17-9l-369 0-17-49c-3-8-11-15-20-15l-85 0 0 43 70 0 15 49 41 181-58 77c-15 9-25 26-25 45 0 30 23 53 53 53 30 0 53-23 53-53 0-4 0-6-2-11l216 0c0 5-2 7-2 11 0 30 23 53 53 53 30 0 53-23 53-53 0-26-19-47-42-51l0-2-297 0 32-43z m34-192l-49 149-246 0-34-149z"/>
    </symbol>
  
    <symbol id="icon-profile" viewBox="0 0 512 512">
      <path d="m341 265c26-24 43-58 43-94 0-71-58-128-128-128-70 0-128 57-128 128 0 38 17 70 43 94-60 14-107 57-107 162 0 8 0 15 0 23 0 11 11 19 21 19l342 0c10 0 21-8 21-19 0-8 0-15 0-23 0-105-47-145-107-162z m-170-94c0-47 38-86 85-86 47 0 85 39 85 86 0 47-38 85-85 85-47 0-85-38-85-85z m-64 256c0-107 53-128 149-128 96 0 149 21 149 128z"/>
    </symbol>
  
    <symbol id="icon-search" viewBox="0 0 512 512">
      <path d="m294 175c-34-34-87-34-119 0-34 34-34 87 0 119 34 35 87 35 119 0 32-34 32-87 0-119z m105 224c-9 8-21 8-30 0l-62-62c-49 36-119 32-164-13-49-49-49-130 0-179 49-49 130-49 179 0 45 45 49 113 13 164l62 62c10 7 10 19 2 28z"/>
    </symbol>
  
    <symbol id="icon-facebook" viewBox="0 0 512 512">
      <path d="m290 469l-94 0 0-213-47 0 0-73 47 0 0-44c0-60 28-96 103-96l64 0 0 72-39 0c-30 0-32 11-32 30l0 36 71 0-9 75-64 0z"/>
    </symbol>
  
    <symbol id="icon-instagram" viewBox="0 0 512 512">
      <path d="m384 21l-256 0c-60 0-107 47-107 107l0 256c0 60 47 107 107 107l256 0c60 0 107-47 107-107l0-256c0-60-47-107-107-107z m64 363c0 36-28 64-64 64l-256 0c-36 0-64-28-64-64l0-256c0-36 28-64 64-64l256 0c36 0 64 28 64 64z m-192-235c-60 0-107 47-107 107 0 60 47 107 107 107 60 0 107-47 107-107 0-60-47-107-107-107z m0 171c-36 0-64-28-64-64 0-36 28-64 64-64 36 0 64 28 64 64 0 36-28 64-64 64z m160-192c0 18-14 32-32 32-18 0-32-14-32-32 0-18 14-32 32-32 18 0 32 14 32 32z"/>
    </symbol>
  
    <symbol id="icon-twitter" viewBox="0 0 512 512">
      <path d="m491 109c-17 8-37 13-56 15 19-13 34-32 43-54-19 11-39 20-62 24-17-19-43-30-70-30-54 0-96 43-96 96 0 9 0 15 2 21-81-4-152-42-199-100-8 15-12 32-12 49 0 34 17 64 42 81-15 0-30-4-42-13l0 3c0 46 34 85 76 96-8 0-17 2-25 2-7 0-13 0-17-2 10 38 47 66 89 68-34 25-74 40-119 40-9 0-15 0-24 0 43 28 94 43 148 43 177 0 273-147 273-275 0-4 0-9 0-13 19-15 36-32 49-51z"/>
    </symbol>
  
    <symbol id="icon-arrow-back" viewBox="0 0 512 512">
      <path d="m309 384c-6 0-10-2-15-6l-106-107c-5-4-7-9-7-15 0-6 2-11 7-15l106-107c9-8 22-8 30 0 9 9 9 22 0 30l-91 92 91 92c9 8 9 21 0 30-4 4-8 6-15 6z"/>
    </symbol>
  
    <symbol id="icon-arrow-down" viewBox="0 0 512 512">
      <path d="m384 203c0 6-2 10-6 15l-107 106c-4 5-9 7-15 7-6 0-11-2-15-7l-107-106c-8-9-8-22 0-30 9-9 22-9 30 0l92 91 92-91c8-9 21-9 30 0 4 4 6 8 6 15z"/>
    </symbol>
  
    <symbol id="icon-arrow-next" viewBox="0 0 512 512">
      <path d="m203 128c6 0 10 2 15 6l106 107c5 4 7 9 7 15 0 6-2 11-7 15l-106 107c-9 8-22 8-30 0-9-9-9-22 0-30l91-92-91-92c-9-8-9-21 0-30 4-4 8-6 15-6z"/>
    </symbol>
  
    <symbol id="icon-arrow-up" viewBox="0 0 512 512">
      <path d="m128 309c0-6 2-10 6-15l107-106c4-5 9-7 15-7 6 0 11 2 15 7l107 106c8 9 8 22 0 30-9 9-22 9-30 0l-92-91-92 91c-8 9-21 9-30 0-4-4-6-8-6-15z"/>
    </symbol>
  
</svg>
