<svg xmlns="http://www.w3.org/2000/svg">
  
  <symbol id="icon-basket" width="24px" height="24px" viewBox="0 0 24 24">
    <path d="M5.2198039,7 L6.8198039,15 L18.381966,15 L22.381966,7 L5.2198039,7 Z M6,16 L4,6 L24,6 L19,16 L6,16 Z"></path>
    <path d="M4.52206892,6.65811388 L5.46999979,6.34188612 L4.47079292,3.34188612 C4.40278987,3.13771505 4.21187199,3 3.99682748,3 L0,3 L0,4 L3.6367337,4 L4.52206892,6.65811388 Z"></path>
    <polygon points="5.99999996 15 3 19.3478261 3.79999999 20 6.79999995 15.6521739"></polygon>
    <polygon points="6 21 18 21 18 20 6 20"></polygon>
    <path d="M4.5,23 C5.32842712,23 6,22.3284271 6,21.5 C6,20.6715729 5.32842712,20 4.5,20 C3.67157288,20 3,20.6715729 3,21.5 C3,22.3284271 3.67157288,23 4.5,23 Z M4.5,24 C3.11928813,24 2,22.8807119 2,21.5 C2,20.1192881 3.11928813,19 4.5,19 C5.88071187,19 7,20.1192881 7,21.5 C7,22.8807119 5.88071187,24 4.5,24 Z"></path>
    <path d="M19.5,23 C20.3284271,23 21,22.3284271 21,21.5 C21,20.6715729 20.3284271,20 19.5,20 C18.6715729,20 18,20.6715729 18,21.5 C18,22.3284271 18.6715729,23 19.5,23 Z M19.5,24 C18.1192881,24 17,22.8807119 17,21.5 C17,20.1192881 18.1192881,19 19.5,19 C20.8807119,19 22,20.1192881 22,21.5 C22,22.8807119 20.8807119,24 19.5,24 Z"></path>
  </symbol>

  <symbol id="icon-profile" width="24px" height="24px" viewBox="0 0 24 24">
    <path d="M12,12 C14.209139,12 16,10.209139 16,8 C16,5.790861 14.209139,4 12,4 C9.790861,4 8,5.790861 8,8 C8,10.209139 9.790861,12 12,12 Z M12,13 C9.23857625,13 7,10.7614237 7,8 C7,5.23857625 9.23857625,3 12,3 C14.7614237,3 17,5.23857625 17,8 C17,10.7614237 14.7614237,13 12,13 Z"></path>
    <path d="M12,14 C6.95609515,14 5,15.3384707 5,20 L19,20 C19,15.3384707 17.0439049,14 12,14 Z M4.0314965,21 C4.01064714,20.6649807 4,20.3312274 4,20 C4,13.9248678 7.581722,13 12,13 C16.418278,13 20,13.9248678 20,20 C20,20.3312274 19.9893529,20.6649807 19.9685035,21 L4.0314965,21 Z"></path>
  </symbol>

  <symbol id="icon-search" width="14px" height="14px" viewBox="0 0 14 14">
    <g transform="translate(-5.000000, -5.000000)">
      <path d="M11,16 C13.7614237,16 16,13.7614237 16,11 C16,8.23857625 13.7614237,6 11,6 C8.23857625,6 6,8.23857625 6,11 C6,13.7614237 8.23857625,16 11,16 Z M11,17 C7.6862915,17 5,14.3137085 5,11 C5,7.6862915 7.6862915,5 11,5 C14.3137085,5 17,7.6862915 17,11 C17,14.3137085 14.3137085,17 11,17 Z"></path>
      <rect transform="translate(16.798097, 16.798097) rotate(-45.000000) translate(-16.798097, -16.798097) " x="16.298097" y="14.2552038" width="1" height="5.08578644"></rect>
    </g>
  </symbol>

  <symbol id="icon-arrow-up" width="10px" height="10px" viewBox="0 0 10 10">
    <path d="M3.35353994,9.35356684 C4.11390465,8.59323572 4.11390465,8.59323572 5.19137963,7.51576019 C6.81303538,5.8940852 6.81303538,5.8940852 7.3535579,5.35354888 C7.54881579,5.158286 7.54881377,4.84170699 7.35355339,4.64644661 L3.35355339,0.646446609 C3.15829124,0.451184464 2.84170876,0.451184464 2.64644661,0.646446609 C2.45118446,0.841708755 2.45118446,1.15829124 2.64644661,1.35355339 L6.64644661,5.35355339 L6.6464421,4.64645112 C6.10592158,5.18698543 6.10592158,5.18698543 4.48433749,6.80858877 C3.40680091,7.8861259 3.40680091,7.8861259 2.64646006,8.64643316 C2.45119048,8.84168788 2.45117844,9.15827037 2.64643316,9.35353994 C2.84168788,9.54880952 3.15827037,9.54882156 3.35353994,9.35356684 Z"></path>
  </symbol>

  <symbol id="icon-arrow-next" viewBox="0 0 512 512">
    <path d="m203 128c6 0 10 2 15 6l106 107c5 4 7 9 7 15 0 6-2 11-7 15l-106 107c-9 8-22 8-30 0-9-9-9-22 0-30l91-92-91-92c-9-8-9-21 0-30 4-4 8-6 15-6z"/>
  </symbol>

  <symbol id="icon-arrow-down" viewBox="0 0 512 512">
    <path d="m384 203c0 6-2 10-6 15l-107 106c-4 5-9 7-15 7-6 0-11-2-15-7l-107-106c-8-9-8-22 0-30 9-9 22-9 30 0l92 91 92-91c8-9 21-9 30 0 4 4 6 8 6 15z"/>
  </symbol>

  <symbol id="icon-arrow-back" viewBox="0 0 512 512">
    <path d="m309 384c-6 0-10-2-15-6l-106-107c-5-4-7-9-7-15 0-6 2-11 7-15l106-107c9-8 22-8 30 0 9 9 9 22 0 30l-91 92 91 92c9 8 9 21 0 30-4 4-8 6-15 6z"/>
  </symbol>

  <symbol id="icon-facebook" viewBox="0 0 512 512">
    <path d="m290 469l-94 0 0-213-47 0 0-73 47 0 0-44c0-60 28-96 103-96l64 0 0 72-39 0c-30 0-32 11-32 30l0 36 71 0-9 75-64 0z"/>
  </symbol>

  <symbol id="icon-instagram" viewBox="0 0 512 512">
    <path d="m384 21l-256 0c-60 0-107 47-107 107l0 256c0 60 47 107 107 107l256 0c60 0 107-47 107-107l0-256c0-60-47-107-107-107z m64 363c0 36-28 64-64 64l-256 0c-36 0-64-28-64-64l0-256c0-36 28-64 64-64l256 0c36 0 64 28 64 64z m-192-235c-60 0-107 47-107 107 0 60 47 107 107 107 60 0 107-47 107-107 0-60-47-107-107-107z m0 171c-36 0-64-28-64-64 0-36 28-64 64-64 36 0 64 28 64 64 0 36-28 64-64 64z m160-192c0 18-14 32-32 32-18 0-32-14-32-32 0-18 14-32 32-32 18 0 32 14 32 32z"/>
  </symbol>

  <symbol id="icon-twitter" viewBox="0 0 512 512">
    <path d="m491 109c-17 8-37 13-56 15 19-13 34-32 43-54-19 11-39 20-62 24-17-19-43-30-70-30-54 0-96 43-96 96 0 9 0 15 2 21-81-4-152-42-199-100-8 15-12 32-12 49 0 34 17 64 42 81-15 0-30-4-42-13l0 3c0 46 34 85 76 96-8 0-17 2-25 2-7 0-13 0-17-2 10 38 47 66 89 68-34 25-74 40-119 40-9 0-15 0-24 0 43 28 94 43 148 43 177 0 273-147 273-275 0-4 0-9 0-13 19-15 36-32 49-51z"/>
  </symbol>

  <symbol id="icon-close" viewBox="0 0 512 512">
    <path d="m184 256l-169-169c-20-20-20-52 0-72 20-20 52-20 72 0l169 169 169-169c20-20 52-20 72 0 20 20 20 52 0 72l-169 169 169 169c20 20 20 52 0 72-20 20-52 20-72 0l-169-169-169 169c-20 20-52 20-72 0-20-20-20-52 0-72z"/>
  </symbol>

</svg>
