<svg xmlns="https://www.w3.org/2000/svg">
  
  <symbol id="icon-basket" width="24px" height="24px" viewBox="0 0 24 24">
    <path d="M6.80952735,6 L19.8469903,6 C20.3992751,6 20.8469903,6.44771525 20.8469903,7 C20.8469903,7.04731887 20.8436317,7.09457807 20.8369398,7.14142136 L20.1134442,12.2058906 C20.0471602,12.6698786 19.6675093,13.0255762 19.2001912,13.0615238 L7.72080807,13.9445532 L7.90576151,15.5569789 C7.93471786,15.8094206 8.1484073,16 8.4025043,16 L19.6804954,16 C19.9566378,16 20.1804954,16.2238576 20.1804954,16.5 C20.1804954,16.7761424 19.9566378,17 19.6804954,17 L8.4025043,17 C7.6402133,17 6.99914497,16.4282619 6.91227592,15.6709368 L5.6243768,4.44302107 C5.59542045,4.19057936 5.38173101,4 5.12763401,4 L4,4 C3.72385763,4 3.5,3.77614237 3.5,3.5 C3.5,3.22385763 3.72385763,3 4,3 L5.12763401,3 C5.88992501,3 6.53099334,3.57173809 6.61786239,4.32906321 L6.80952735,6 Z M7.60677032,12.9503711 L19.1234947,12.0644693 L19.8469903,7 L6.92423244,7 L7.60677032,12.9503711 Z M7.5,21 C6.67157288,21 6,20.3284271 6,19.5 C6,18.6715729 6.67157288,18 7.5,18 C8.32842712,18 9,18.6715729 9,19.5 C9,20.3284271 8.32842712,21 7.5,21 Z M18.5,21 C17.6715729,21 17,20.3284271 17,19.5 C17,18.6715729 17.6715729,18 18.5,18 C19.3284271,18 20,18.6715729 20,19.5 C20,20.3284271 19.3284271,21 18.5,21 Z"></path>
  </symbol>

  <symbol id="icon-profile" width="24px" height="24px" viewBox="0 0 24 24">
    <path d="M12,12 C14.209139,12 16,10.209139 16,8 C16,5.790861 14.209139,4 12,4 C9.790861,4 8,5.790861 8,8 C8,10.209139 9.790861,12 12,12 Z M12,13 C9.23857625,13 7,10.7614237 7,8 C7,5.23857625 9.23857625,3 12,3 C14.7614237,3 17,5.23857625 17,8 C17,10.7614237 14.7614237,13 12,13 Z M8.5,14 L15.5,14 C17.4329966,14 19,15.5670034 19,17.5 L19,20 C19,20.5522847 18.5522847,21 18,21 L6,21 C5.44771525,21 5,20.5522847 5,20 L5,17.5 C5,15.5670034 6.56700338,14 8.5,14 Z M8.5,15 C7.11928813,15 6,16.1192881 6,17.5 L6,20 L18,20 L18,17.5 C18,16.1192881 16.8807119,15 15.5,15 L8.5,15 Z"></path>
  </symbol>

  <symbol id="icon-search" width="16px" height="16px" viewBox="0 0 16 16">
    <path transform="translate(-3.000000, -3.000000)" d="M14.5802007,13.8759872 L19.3040469,18.5998334 L19.3040469,18.5998334 C19.499309,18.7950955 19.499309,19.111678 19.3040469,19.3069402 C19.1087848,19.5022023 18.7922023,19.5022023 18.5969401,19.3069402 L13.8728534,14.5828534 C12.827728,15.4669546 11.4761137,16 10,16 C6.6862915,16 4,13.3137085 4,10 C4,6.6862915 6.6862915,4 10,4 C13.3137085,4 16,6.6862915 16,10 C16,11.4775895 15.4658882,12.8304305 14.5802007,13.8759872 Z M13.6793346,13.3856705 C14.4992767,12.4950669 15,11.3060086 15,10 C15,7.23857625 12.7614237,5 10,5 C7.23857625,5 5,7.23857625 5,10 C5,12.7614237 7.23857625,15 10,15 C11.3046577,15 12.492607,14.500312 13.382906,13.6818778 C13.4071464,13.6160526 13.4456955,13.5543045 13.4985534,13.5014466 C13.5515049,13.4484951 13.6133782,13.4099031 13.6793346,13.3856705 Z"></path>
  </symbol>

  <symbol id="icon-arrow-narrow" width="10px" height="10px" viewBox="0 0 10 10">
    <path d="M1.64644661,8.64644661 C1.45118446,8.84170876 1.45118446,9.15829124 1.64644661,9.35355339 C1.84170876,9.54881554 2.15829124,9.54881554 2.35355339,9.35355339 L5.35355339,6.35355339 C5.54881554,6.15829124 5.54881554,5.84170876 5.35355339,5.64644661 L2.35355339,2.64644661 C2.15829124,2.45118446 1.84170876,2.45118446 1.64644661,2.64644661 C1.45118446,2.84170876 1.45118446,3.15829124 1.64644661,3.35355339 L4.29289322,6 L1.64644661,8.64644661 Z"></path>
  </symbol>

  <symbol id="icon-arrow" width="25px" height="25px" viewBox="0 0 25 25">
    <path d="M3.41421374,13 L23,13 C23.5522847,13 24,12.5522847 24,12 C24,11.4477153 23.5522847,11 23,11 L3.42081532,11 L9.59949492,4.82132039 C9.99001922,4.4307961 9.99001922,3.79763112 9.59949492,3.40710683 C9.20897063,3.01658254 8.57580565,3.01658254 8.18528136,3.40710683 L0.407106769,11.1852814 L0.407106769,11.1852814 C0.395565533,11.1968227 0.384365377,11.2085758 0.373506301,11.2205284 C0.145746956,11.4038215 -8.9901266e-16,11.6848902 -8.60422844e-16,12 C-8.230537e-16,12.3051422 0.136672266,12.5783629 0.35214108,12.7617864 C0.369511818,12.7821831 0.387833714,12.8020471 0.407106769,12.8213202 L0.407106769,12.8213202 L8.18528136,20.5994947 C8.57580565,20.990019 9.20897063,20.990019 9.59949492,20.5994947 C9.99001922,20.2089705 9.99001922,19.5758055 9.59949492,19.1852812 L3.41421374,13 Z" id="path-3"></path>
  </symbol>

  <symbol id="icon-close" width="12px" height="12px" viewBox="0 0 12 12">
    <path transform="translate(-6.000000, -6.000000)" d="M11,11 L7,11 L7,11 C6.44771525,11 6,11.4477153 6,12 C6,12.5522847 6.44771525,13 7,13 L11,13 L11,17 C11,17.5522847 11.4477153,18 12,18 C12.5522847,18 13,17.5522847 13,17 L13,13 L17,13 C17.5522847,13 18,12.5522847 18,12 C18,11.4477153 17.5522847,11 17,11 L13,11 L13,7 C13,6.44771525 12.5522847,6 12,6 C11.4477153,6 11,6.44771525 11,7 L11,7 L11,11 Z"></path>
  </symbol>
  <symbol id="icon-plus" width="12px" height="12px" viewBox="0 0 12 12">
    <path transform="translate(-6.000000, -6.000000)" d="M11,11 L7,11 L7,11 C6.44771525,11 6,11.4477153 6,12 C6,12.5522847 6.44771525,13 7,13 L11,13 L11,17 C11,17.5522847 11.4477153,18 12,18 C12.5522847,18 13,17.5522847 13,17 L13,13 L17,13 C17.5522847,13 18,12.5522847 18,12 C18,11.4477153 17.5522847,11 17,11 L13,11 L13,7 C13,6.44771525 12.5522847,6 12,6 C11.4477153,6 11,6.44771525 11,7 L11,7 L11,11 Z"></path>
  </symbol>

  <symbol id="icon-minus" width="12px" height="12px" viewBox="0 0 12 12">
    <rect transform="translate(-6.000000, -6.000000)" x="6" y="11" width="12" height="2" rx="1"></rect>
  </symbol>

  <symbol id="icon-quote" width="23px" height="18px" viewBox="0 0 23 18">
    <g fill="#F2F6FA">
      <path d="M4,8 L10,0 L6,0 L0,8 L0,9 L0,18 L10,18 L10,8 L4,8 Z"></path>
      <path d="M17,8 L23,0 L19,0 L13,8 L13,9 L13,18 L23,18 L23,8 L17,8 Z"></path>
    </g>
  </symbol>

  <symbol id="icon-facebook" width="12px" height="22px" viewBox="0 0 12 22">
    <path transform="translate(-6.000000, -1.000000)" d="M13.1493281,12.0005266 C13.1493281,11.7243842 13.3731858,11.5005266 13.6493281,11.5005266 L16.1613867,11.5005266 L16.439875,9.05326768 L13.6493281,9.05326768 C13.3725719,9.05326768 13.1484609,8.82845123 13.1493306,8.5516964 L13.1547464,6.82911159 C13.1547464,5.48382395 13.605752,4.94725894 15.1306892,4.94725894 L16.4783268,4.94725894 L16.4783268,2.5 L14.0199393,2.5 C10.9427676,2.5 9.71608149,3.74751454 9.71608149,6.48470167 L9.71608149,8.55326768 C9.71608149,8.82941006 9.49222387,9.05326768 9.21608149,9.05326768 L7.5,9.05326768 L7.5,11.5005266 L9.21608149,11.5005266 C9.49222387,11.5005266 9.71608149,11.7243842 9.71608149,12.0005266 L9.71608149,21.5 L13.1493281,21.5 L13.1493281,12.0005266 Z M14.1493281,22 C14.1493281,22.2761424 13.9254705,22.5 13.6493281,22.5 L9.21608149,22.5 C8.93993912,22.5 8.71608149,22.2761424 8.71608149,22 L8.71608149,12.5005266 L7,12.5005266 C6.72385763,12.5005266 6.5,12.276669 6.5,12.0005266 L6.5,8.55326768 C6.5,8.27712531 6.72385763,8.05326768 7,8.05326768 L8.71608149,8.05326768 L8.71608149,6.48470167 C8.71608149,3.19896339 10.386679,1.5 14.0199393,1.5 L16.9783268,1.5 C17.2544692,1.5 17.4783268,1.72385763 17.4783268,2 L17.4783268,5.44725894 C17.4783268,5.72340131 17.2544692,5.94725894 16.9783268,5.94725894 L15.1306892,5.94725894 C14.2002328,5.94725894 14.1547464,6.00137441 14.154744,6.83068287 L14.1509019,8.05326768 L17,8.05326768 C17.298536,8.05326768 17.5305481,8.31317921 17.4967937,8.60980083 L17.1045094,12.0570598 C17.0757602,12.3096976 16.861984,12.5005266 16.6077156,12.5005266 L14.1493281,12.5005266 L14.1493281,22 Z"></path>
  </symbol>

  <symbol id="icon-instagram" width="22px" height="22px" viewBox="0 0 22 22">
    <path transform="translate(-1.000000, -1.000000)" d="M5,1 L19,1 C21.209139,1 23,2.790861 23,5 L23,19 C23,21.209139 21.209139,23 19,23 L5,23 C2.790861,23 1,21.209139 1,19 L1,5 L1,5 C1,2.790861 2.790861,1 5,1 L5,1 Z M5,2 L5,2 C3.34314575,2 2,3.34314575 2,5 L2,19 C2,20.6568542 3.34314575,22 5,22 L19,22 C20.6568542,22 22,20.6568542 22,19 L22,5 C22,3.34314575 20.6568542,2 19,2 L5,2 Z M12,17 C9.23857625,17 7,14.7614237 7,12 C7,9.23857625 9.23857625,7 12,7 C14.7614237,7 17,9.23857625 17,12 C17,14.7614237 14.7614237,17 12,17 Z M12,16 C14.209139,16 16,14.209139 16,12 C16,9.790861 14.209139,8 12,8 C9.790861,8 8,9.790861 8,12 C8,14.209139 9.790861,16 12,16 Z M18,7.5 C17.1715729,7.5 16.5,6.82842712 16.5,6 C16.5,5.17157288 17.1715729,4.5 18,4.5 C18.8284271,4.5 19.5,5.17157288 19.5,6 C19.5,6.82842712 18.8284271,7.5 18,7.5 Z"></path>
  </symbol>

  <symbol id="icon-twitter" width="24px" height="20px" viewBox="0 0 24 20">
    <path transform="translate(0.000000, -2.000000)" d="M23,5.13280059 C22.1904989,5.49502795 21.3202589,5.73688783 20.4081302,5.84713094 C21.3401561,5.2846661 22.0554075,4.39372178 22.3926123,3.33403801 C21.5192308,3.85375553 20.5536938,4.23173191 19.5253237,4.43646911 C18.7032559,3.55227437 17.5293222,3.00105882 16.2318165,3.00105882 C13.7394326,3.00105882 11.7172506,5.03605664 11.7172506,7.54464985 C11.7172506,7.90125256 11.7570449,8.24885584 11.8345392,8.5807101 C8.0833968,8.39059698 4.75742574,6.58171003 2.5310358,3.8335068 C2.14251714,4.50508982 1.92050647,5.2846661 1.92050647,6.118239 C1.92050647,7.69314057 2.71744097,9.08580353 3.92802742,9.90025262 C3.18869002,9.87550417 2.49333587,9.6718919 1.88385377,9.3310382 L1.88385377,9.38953454 C1.88385377,11.591022 3.43897563,13.4269072 5.50409368,13.8442561 C5.12604722,13.9477497 4.72600914,14.0017463 4.31549886,14.0017463 C4.02437167,14.0017463 3.74162224,13.974748 3.46620335,13.9230012 C4.04007997,15.7262635 5.70725438,17.0413063 7.6823115,17.078429 C6.13766184,18.2967278 4.19192688,19.0223075 2.07654227,19.0223075 C1.71210967,19.0223075 1.35291318,19.0009338 1,18.9593114 C2.99704874,20.2473559 5.3700495,21.0010588 7.91898324,21.0010588 C16.2213442,21.0010588 20.7610434,14.0759916 20.7610434,8.07224187 C20.7610434,7.87425425 20.7558073,7.67964141 20.7474296,7.48390365 C21.6291889,6.84269372 22.3947068,6.04286871 23,5.13280059 Z M23.832649,5.68660174 C23.2604339,6.54693637 22.5597278,7.31738472 21.7605916,7.96598801 C21.7608923,8.00156844 21.7610434,8.03695971 21.7610434,8.07224187 C21.7610434,15.4707387 16.0438521,22.0010588 7.91898324,22.0010588 C5.24187186,22.0010588 2.67276268,21.2281542 0.457984275,19.7996798 C-0.432539707,19.225315 0.064738714,17.8420764 1.11712769,17.9661946 C1.43341224,18.003497 1.7535146,18.0223075 2.07654227,18.0223075 C3.14937072,18.0223075 4.18903274,17.8123274 5.15000346,17.4151883 C3.91690583,16.7462165 2.95545131,15.6156241 2.51329457,14.2262583 C2.42049169,13.9346487 2.46720126,13.6456917 2.60495047,13.4141877 C1.53891103,12.3972426 0.88385377,10.9609525 0.88385377,9.38953454 C0.88385377,8.92804051 1.11259674,8.60353285 1.42661536,8.44165978 C1.09885794,7.72685962 0.920506474,6.93716082 0.920506474,6.118239 C0.920506474,5.12655628 1.17977616,4.17226904 1.66544605,3.33275297 C2.01649567,2.72593793 2.86675932,2.65930492 3.30805192,3.2040261 C5.1697294,5.50203688 7.80131992,7.02323781 10.7178162,7.46447877 C10.7604894,4.44197826 13.2123034,2.00105882 16.2318165,2.00105882 C17.5729585,2.00105882 18.8407892,2.48604948 19.8273738,3.34018569 C20.5491337,3.14815833 21.2390181,2.85684158 21.8812393,2.4746792 C22.671734,2.00428462 23.6244609,2.76071248 23.3455296,3.63726843 C23.2910807,3.80837679 23.2284935,3.97607812 23.1581845,4.13987992 C23.8167822,4.2449816 24.2694743,5.02982773 23.832649,5.68660174 Z"></path>
  </symbol>

</svg>
