<?xml version="1.0" encoding="UTF-8"?>
<svg width="54px" height="351px" viewBox="0 0 54 351" version="1.1" xmlns="http://www.w3.org/2000/svg" xmlns:xlink="http://www.w3.org/1999/xlink">
    <!-- Generator: Sketch 48.2 (47327) - http://www.bohemiancoding.com/sketch -->
    <title>icon-sprite</title>
    <desc>Created with Sketch.</desc>
    <defs></defs>
    <g id="Page-1" stroke="none" stroke-width="1" fill="none" fill-rule="evenodd">
        <g id="icon-sprite" transform="translate(-3.000000, 0.000000)" fill-rule="nonzero">
            <g id="icon-basket" transform="translate(6.000000, 333.000000)" fill="#000000">
                <path d="M3.80952735,3 L16.8469903,3 C17.3992751,3 17.8469903,3.44771525 17.8469903,4 C17.8469903,4.04731887 17.8436317,4.09457807 17.8369398,4.14142136 L17.1134442,9.2058906 C17.0471602,9.6698786 16.6675093,10.0255762 16.2001912,10.0615238 L4.72080807,10.9445532 L4.90576151,12.5569789 C4.93471786,12.8094206 5.1484073,13 5.4025043,13 L16.6804954,13 C16.9566378,13 17.1804954,13.2238576 17.1804954,13.5 C17.1804954,13.7761424 16.9566378,14 16.6804954,14 L5.4025043,14 C4.6402133,14 3.99914497,13.4282619 3.91227592,12.6709368 L2.6243768,1.44302107 C2.59542045,1.19057936 2.38173101,1 2.12763401,1 L1,1 C0.72385763,1 0.5,0.77614237 0.5,0.5 C0.5,0.22385763 0.72385763,0 1,0 L2.12763401,0 C2.88992501,0 3.53099334,0.57173809 3.61786239,1.32906321 L3.80952735,3 Z M4.60677032,9.9503711 L16.1234947,9.0644693 L16.8469903,4 L3.92423244,4 L4.60677032,9.9503711 Z M4.5,18 C3.67157288,18 3,17.3284271 3,16.5 C3,15.6715729 3.67157288,15 4.5,15 C5.32842712,15 6,15.6715729 6,16.5 C6,17.3284271 5.32842712,18 4.5,18 Z M15.5,18 C14.6715729,18 14,17.3284271 14,16.5 C14,15.6715729 14.6715729,15 15.5,15 C16.3284271,15 17,15.6715729 17,16.5 C17,17.3284271 16.3284271,18 15.5,18 Z" id="Shape"></path>
            </g>
            <g id="icon-profile" transform="translate(8.000000, 303.000000)" fill="#000000">
                <path d="M7,9 C9.209139,9 11,7.209139 11,5 C11,2.790861 9.209139,1 7,1 C4.790861,1 3,2.790861 3,5 C3,7.209139 4.790861,9 7,9 Z M7,10 C4.23857625,10 2,7.7614237 2,5 C2,2.23857625 4.23857625,0 7,0 C9.7614237,0 12,2.23857625 12,5 C12,7.7614237 9.7614237,10 7,10 Z M3.5,11 L10.5,11 C12.4329966,11 14,12.5670034 14,14.5 L14,17 C14,17.5522847 13.5522847,18 13,18 L1,18 C0.44771525,18 0,17.5522847 0,17 L0,14.5 C0,12.5670034 1.56700338,11 3.5,11 Z M3.5,12 C2.11928813,12 1,13.1192881 1,14.5 L1,17 L13,17 L13,14.5 C13,13.1192881 11.8807119,12 10.5,12 L3.5,12 Z" id="Shape"></path>
            </g>
            <g id="icon-search" transform="translate(4.000000, 271.000000)" fill="#000000">
                <path d="M10.5802007,9.8759872 L15.3040469,14.5998334 C15.499309,14.7950955 15.499309,15.111678 15.3040469,15.3069402 C15.1087848,15.5022023 14.7922023,15.5022023 14.5969401,15.3069402 L9.8728534,10.5828534 C8.827728,11.4669546 7.4761137,12 6,12 C2.6862915,12 0,9.3137085 0,6 C0,2.6862915 2.6862915,0 6,0 C9.3137085,0 12,2.6862915 12,6 C12,7.4775895 11.4658882,8.8304305 10.5802007,9.8759872 Z M9.6793346,9.3856705 C10.4992767,8.4950669 11,7.3060086 11,6 C11,3.23857625 8.7614237,1 6,1 C3.23857625,1 1,3.23857625 1,6 C1,8.7614237 3.23857625,11 6,11 C7.3046577,11 8.492607,10.500312 9.382906,9.6818778 C9.4071464,9.6160526 9.4456955,9.5543045 9.4985534,9.5014466 C9.5515049,9.4484951 9.6133782,9.4099031 9.6793346,9.3856705 Z" id="Shape"></path>
            </g>
            <g id="icon-search-copy" transform="translate(34.000000, 271.000000)" fill="#FFFFFF">
                <path d="M10.5802007,9.8759872 L15.3040469,14.5998334 C15.499309,14.7950955 15.499309,15.111678 15.3040469,15.3069402 C15.1087848,15.5022023 14.7922023,15.5022023 14.5969401,15.3069402 L9.8728534,10.5828534 C8.827728,11.4669546 7.4761137,12 6,12 C2.6862915,12 0,9.3137085 0,6 C0,2.6862915 2.6862915,0 6,0 C9.3137085,0 12,2.6862915 12,6 C12,7.4775895 11.4658882,8.8304305 10.5802007,9.8759872 Z M9.6793346,9.3856705 C10.4992767,8.4950669 11,7.3060086 11,6 C11,3.23857625 8.7614237,1 6,1 C3.23857625,1 1,3.23857625 1,6 C1,8.7614237 3.23857625,11 6,11 C7.3046577,11 8.492607,10.500312 9.382906,9.6818778 C9.4071464,9.6160526 9.4456955,9.5543045 9.4985534,9.5014466 C9.5515049,9.4484951 9.6133782,9.4099031 9.6793346,9.3856705 Z" id="Shape"></path>
            </g>
            <g id="icon-arrow-narrow" transform="translate(4.000000, 242.000000)" fill="#000000">
                <path d="M0.64644661,6.64644661 C0.45118446,6.84170876 0.45118446,7.15829124 0.64644661,7.35355339 C0.84170876,7.54881553 1.15829124,7.54881553 1.35355339,7.35355339 L4.35355339,4.35355339 C4.54881553,4.15829124 4.54881553,3.84170876 4.35355339,3.64644661 L1.35355339,0.64644661 C1.15829124,0.45118446 0.84170876,0.45118446 0.64644661,0.64644661 C0.45118446,0.84170876 0.45118446,1.15829124 0.64644661,1.35355339 L3.29289322,4 L0.64644661,6.64644661 Z" id="Shape"></path>
            </g>
            <g id="icon-arrow-narrow-copy" transform="translate(35.000000, 243.000000)" fill="#000000">
                <path d="M0.45450487,13.9545049 C0.01516503,14.3938447 0.01516503,15.1061553 0.45450487,15.5454951 C0.89384471,15.9848349 1.60615529,15.9848349 2.04549513,15.5454951 L8.79549513,8.79549513 C9.2348349,8.35615529 9.2348349,7.64384471 8.79549513,7.20450487 L2.04549513,0.45450487 C1.60615529,0.01516503 0.89384471,0.01516503 0.45450487,0.45450487 C0.01516503,0.89384471 0.01516503,1.60615529 0.45450487,2.04549513 L6.40900974,8 L0.45450487,13.9545049 Z" id="Shape"></path>
            </g>
            <g id="icon-arrow" transform="translate(3.000000, 213.000000)" fill="#000000">
                <path d="M3.41421374,10 L23,10 C23.5522847,10 24,9.5522847 24,9 C24,8.4477153 23.5522847,8 23,8 L3.42081532,8 L9.59949492,1.82132039 C9.99001922,1.4307961 9.99001922,0.79763112 9.59949492,0.40710683 C9.20897063,0.01658254 8.57580565,0.01658254 8.18528136,0.40710683 L0.407106769,8.1852814 C0.395565533,8.1968227 0.384365377,8.2085758 0.373506301,8.2205284 C0.145746956,8.4038215 -8.9901266e-16,8.6848902 -8.60422844e-16,9 C-8.230537e-16,9.3051422 0.136672266,9.5783629 0.35214108,9.7617864 C0.369511818,9.7821831 0.387833714,9.8020471 0.407106769,9.8213202 L8.18528136,17.5994947 C8.57580565,17.990019 9.20897063,17.990019 9.59949492,17.5994947 C9.99001922,17.2089705 9.99001922,16.5758055 9.59949492,16.1852812 L3.41421374,10 Z" id="path-3"></path>
            </g>
            <g id="icon-arrow-copy" transform="translate(33.000000, 213.000000)" fill="#FFFFFF">
                <path d="M3.41421374,10 L23,10 C23.5522847,10 24,9.5522847 24,9 C24,8.4477153 23.5522847,8 23,8 L3.42081532,8 L9.59949492,1.82132039 C9.99001922,1.4307961 9.99001922,0.79763112 9.59949492,0.40710683 C9.20897063,0.01658254 8.57580565,0.01658254 8.18528136,0.40710683 L0.407106769,8.1852814 C0.395565533,8.1968227 0.384365377,8.2085758 0.373506301,8.2205284 C0.145746956,8.4038215 -8.9901266e-16,8.6848902 -8.60422844e-16,9 C-8.230537e-16,9.3051422 0.136672266,9.5783629 0.35214108,9.7617864 C0.369511818,9.7821831 0.387833714,9.8020471 0.407106769,9.8213202 L8.18528136,17.5994947 C8.57580565,17.990019 9.20897063,17.990019 9.59949492,17.5994947 C9.99001922,17.2089705 9.99001922,16.5758055 9.59949492,16.1852812 L3.41421374,10 Z" id="path-3"></path>
            </g>
            <g id="icon-close" transform="translate(0.000000, 177.000000)" fill="#000000">
                <path d="M8,8 L4,8 C3.44771525,8 3,8.4477153 3,9 C3,9.5522847 3.44771525,10 4,10 L8,10 L8,14 C8,14.5522847 8.4477153,15 9,15 C9.5522847,15 10,14.5522847 10,14 L10,10 L14,10 C14.5522847,10 15,9.5522847 15,9 C15,8.4477153 14.5522847,8 14,8 L10,8 L10,4 C10,3.44771525 9.5522847,3 9,3 C8.4477153,3 8,3.44771525 8,4 L8,8 Z" id="Shape" transform="translate(9.000000, 9.000000) rotate(45.000000) translate(-9.000000, -9.000000) "></path>
            </g>
            <g id="icon-close-copy" transform="translate(29.000000, 176.000000)" fill="#FFFFFF">
                <path d="M15,15 L7,15 C5.8954305,15 5,15.8954306 5,17 C5,18.1045694 5.8954305,19 7,19 L15,19 L15,27 C15,28.1045694 15.8954306,29 17,29 C18.1045694,29 19,28.1045694 19,27 L19,19 L27,19 C28.1045694,19 29,18.1045694 29,17 C29,15.8954306 28.1045694,15 27,15 L19,15 L19,7 C19,5.8954305 18.1045694,5 17,5 C15.8954306,5 15,5.8954305 15,7 L15,15 Z" id="Shape" transform="translate(17.000000, 17.000000) rotate(45.000000) translate(-17.000000, -17.000000) "></path>
            </g>
            <g id="icon-plus" transform="translate(3.000000, 150.000000)" fill="#A2A4A8">
                <path d="M5,5 L1,5 C0.44771525,5 0,5.4477153 0,6 C0,6.5522847 0.44771525,7 1,7 L5,7 L5,11 C5,11.5522847 5.4477153,12 6,12 C6.5522847,12 7,11.5522847 7,11 L7,7 L11,7 C11.5522847,7 12,6.5522847 12,6 C12,5.4477153 11.5522847,5 11,5 L7,5 L7,1 C7,0.44771525 6.5522847,0 6,0 C5.4477153,0 5,0.44771525 5,1 L5,5 Z" id="Shape"></path>
            </g>
            <g id="icon-minus" transform="translate(3.000000, 125.000000)" fill="#A2A4A8">
                <rect id="Rectangle-path" x="0" y="0" width="12" height="2" rx="1"></rect>
            </g>
            <g id="icon-quote" transform="translate(3.000000, 90.000000)" fill="#F2F6FA">
                <g id="Group">
                    <polygon id="Shape" points="4 8 10 0 6 0 0 8 0 9 0 18 10 18 10 8"></polygon>
                    <polygon id="Shape" points="17 8 23 0 19 0 13 8 13 9 13 18 23 18 23 8"></polygon>
                </g>
            </g>
            <g id="icon-facebook" transform="translate(3.000000, 60.000000)" fill="#000000">
                <path d="M7.1493281,11.0005266 C7.1493281,10.7243842 7.3731858,10.5005266 7.6493281,10.5005266 L10.1613867,10.5005266 L10.439875,8.05326768 L7.6493281,8.05326768 C7.3725719,8.05326768 7.1484609,7.82845123 7.1493306,7.5516964 L7.1547464,5.82911159 C7.1547464,4.48382395 7.605752,3.94725894 9.1306892,3.94725894 L10.4783268,3.94725894 L10.4783268,1.5 L8.0199393,1.5 C4.9427676,1.5 3.71608149,2.74751454 3.71608149,5.48470167 L3.71608149,7.55326768 C3.71608149,7.82941006 3.49222387,8.05326768 3.21608149,8.05326768 L1.5,8.05326768 L1.5,10.5005266 L3.21608149,10.5005266 C3.49222387,10.5005266 3.71608149,10.7243842 3.71608149,11.0005266 L3.71608149,20.5 L7.1493281,20.5 L7.1493281,11.0005266 Z M8.1493281,21 C8.1493281,21.2761424 7.9254705,21.5 7.6493281,21.5 L3.21608149,21.5 C2.93993912,21.5 2.71608149,21.2761424 2.71608149,21 L2.71608149,11.5005266 L1,11.5005266 C0.72385763,11.5005266 0.5,11.276669 0.5,11.0005266 L0.5,7.55326768 C0.5,7.27712531 0.72385763,7.05326768 1,7.05326768 L2.71608149,7.05326768 L2.71608149,5.48470167 C2.71608149,2.19896339 4.386679,0.5 8.0199393,0.5 L10.9783268,0.5 C11.2544692,0.5 11.4783268,0.72385763 11.4783268,1 L11.4783268,4.44725894 C11.4783268,4.72340131 11.2544692,4.94725894 10.9783268,4.94725894 L9.1306892,4.94725894 C8.2002328,4.94725894 8.1547464,5.00137441 8.154744,5.83068287 L8.1509019,7.05326768 L11,7.05326768 C11.298536,7.05326768 11.5305481,7.31317921 11.4967937,7.60980083 L11.1045094,11.0570598 C11.0757602,11.3096976 10.861984,11.5005266 10.6077156,11.5005266 L8.1493281,11.5005266 L8.1493281,21 Z" id="Shape"></path>
            </g>
            <g id="icon-instagram" transform="translate(3.000000, 30.000000)" fill="#000000">
                <path d="M4,0 L18,0 C20.209139,0 22,1.790861 22,4 L22,18 C22,20.209139 20.209139,22 18,22 L4,22 C1.790861,22 0,20.209139 0,18 L0,4 C0,1.790861 1.790861,0 4,0 Z M4,1 C2.34314575,1 1,2.34314575 1,4 L1,18 C1,19.6568542 2.34314575,21 4,21 L18,21 C19.6568542,21 21,19.6568542 21,18 L21,4 C21,2.34314575 19.6568542,1 18,1 L4,1 Z M11,16 C8.23857625,16 6,13.7614237 6,11 C6,8.23857625 8.23857625,6 11,6 C13.7614237,6 16,8.23857625 16,11 C16,13.7614237 13.7614237,16 11,16 Z M11,15 C13.209139,15 15,13.209139 15,11 C15,8.790861 13.209139,7 11,7 C8.790861,7 7,8.790861 7,11 C7,13.209139 8.790861,15 11,15 Z M17,6.5 C16.1715729,6.5 15.5,5.82842712 15.5,5 C15.5,4.17157288 16.1715729,3.5 17,3.5 C17.8284271,3.5 18.5,4.17157288 18.5,5 C18.5,5.82842712 17.8284271,6.5 17,6.5 Z" id="Shape"></path>
            </g>
            <g id="icon-twitter" transform="translate(2.000000, 0.000000)" fill="#000000">
                <path d="M24,3.13280059 C23.1904989,3.49502795 22.3202589,3.73688783 21.4081302,3.84713094 C22.3401561,3.2846661 23.0554075,2.39372178 23.3926123,1.33403801 C22.5192308,1.85375553 21.5536938,2.23173191 20.5253237,2.43646911 C19.7032559,1.55227437 18.5293222,1.00105882 17.2318165,1.00105882 C14.7394326,1.00105882 12.7172506,3.03605664 12.7172506,5.54464985 C12.7172506,5.90125256 12.7570449,6.24885584 12.8345392,6.5807101 C9.0833968,6.39059698 5.75742574,4.58171003 3.5310358,1.8335068 C3.14251714,2.50508982 2.92050647,3.2846661 2.92050647,4.118239 C2.92050647,5.69314057 3.71744097,7.08580353 4.92802742,7.90025262 C4.18869002,7.87550417 3.49333587,7.6718919 2.88385377,7.3310382 L2.88385377,7.38953454 C2.88385377,9.591022 4.43897563,11.4269072 6.50409368,11.8442561 C6.12604722,11.9477497 5.72600914,12.0017463 5.31549886,12.0017463 C5.02437167,12.0017463 4.74162224,11.974748 4.46620335,11.9230012 C5.04007997,13.7262635 6.70725438,15.0413063 8.6823115,15.078429 C7.13766184,16.2967278 5.19192688,17.0223075 3.07654227,17.0223075 C2.71210967,17.0223075 2.35291318,17.0009338 2,16.9593114 C3.99704874,18.2473559 6.3700495,19.0010588 8.91898324,19.0010588 C17.2213442,19.0010588 21.7610434,12.0759916 21.7610434,6.07224187 C21.7610434,5.87425425 21.7558073,5.67964141 21.7474296,5.48390365 C22.6291889,4.84269372 23.3947068,4.04286871 24,3.13280059 Z M24.832649,3.68660174 C24.2604339,4.54693637 23.5597278,5.31738472 22.7605916,5.96598801 C22.7608923,6.00156844 22.7610434,6.03695971 22.7610434,6.07224187 C22.7610434,13.4707387 17.0438521,20.0010588 8.91898324,20.0010588 C6.24187186,20.0010588 3.67276268,19.2281542 1.45798427,17.7996798 C0.567460293,17.225315 1.06473871,15.8420764 2.11712769,15.9661946 C2.43341224,16.003497 2.7535146,16.0223075 3.07654227,16.0223075 C4.14937072,16.0223075 5.18903274,15.8123274 6.15000346,15.4151883 C4.91690583,14.7462165 3.95545131,13.6156241 3.51329457,12.2262583 C3.42049169,11.9346487 3.46720126,11.6456917 3.60495047,11.4141877 C2.53891103,10.3972426 1.88385377,8.9609525 1.88385377,7.38953454 C1.88385377,6.92804051 2.11259674,6.60353285 2.42661536,6.44165978 C2.09885794,5.72685962 1.92050647,4.93716082 1.92050647,4.118239 C1.92050647,3.12655628 2.17977616,2.17226904 2.66544605,1.33275297 C3.01649567,0.72593793 3.86675932,0.65930492 4.30805192,1.2040261 C6.1697294,3.50203688 8.80131992,5.02323781 11.7178162,5.46447877 C11.7604894,2.44197826 14.2123034,0.00105882 17.2318165,0.00105882 C18.5729585,0.00105882 19.8407892,0.48604948 20.8273738,1.34018569 C21.5491337,1.14815833 22.2390181,0.85684158 22.8812393,0.4746792 C23.671734,0.00428462 24.6244609,0.76071248 24.3455296,1.63726843 C24.2910807,1.80837679 24.2284935,1.97607812 24.1581845,2.13987992 C24.8167822,2.2449816 25.2694743,3.02982773 24.832649,3.68660174 Z" id="Shape"></path>
            </g>
        </g>
    </g>
</svg>