<svg xmlns="http://www.w3.org/2000/svg">
  
  <symbol id="icon-basket" width="24px" height="24px" viewBox="0 0 24 24">
    <path d="M6.80952735,6 L19.8469903,6 C20.3992751,6 20.8469903,6.44771525 20.8469903,7 C20.8469903,7.04731887 20.8436317,7.09457807 20.8369398,7.14142136 L20.1134442,12.2058906 C20.0471602,12.6698786 19.6675093,13.0255762 19.2001912,13.0615238 L7.72080807,13.9445532 L7.90576151,15.5569789 C7.93471786,15.8094206 8.1484073,16 8.4025043,16 L19.6804954,16 C19.9566378,16 20.1804954,16.2238576 20.1804954,16.5 C20.1804954,16.7761424 19.9566378,17 19.6804954,17 L8.4025043,17 C7.6402133,17 6.99914497,16.4282619 6.91227592,15.6709368 L5.6243768,4.44302107 C5.59542045,4.19057936 5.38173101,4 5.12763401,4 L4,4 C3.72385763,4 3.5,3.77614237 3.5,3.5 C3.5,3.22385763 3.72385763,3 4,3 L5.12763401,3 C5.88992501,3 6.53099334,3.57173809 6.61786239,4.32906321 L6.80952735,6 Z M7.60677032,12.9503711 L19.1234947,12.0644693 L19.8469903,7 L6.92423244,7 L7.60677032,12.9503711 Z M7.5,21 C6.67157288,21 6,20.3284271 6,19.5 C6,18.6715729 6.67157288,18 7.5,18 C8.32842712,18 9,18.6715729 9,19.5 C9,20.3284271 8.32842712,21 7.5,21 Z M18.5,21 C17.6715729,21 17,20.3284271 17,19.5 C17,18.6715729 17.6715729,18 18.5,18 C19.3284271,18 20,18.6715729 20,19.5 C20,20.3284271 19.3284271,21 18.5,21 Z"></path>
  </symbol>

  <symbol id="icon-profile" width="24px" height="24px" viewBox="0 0 24 24">
    <path d="M12,12 C14.209139,12 16,10.209139 16,8 C16,5.790861 14.209139,4 12,4 C9.790861,4 8,5.790861 8,8 C8,10.209139 9.790861,12 12,12 Z M12,13 C9.23857625,13 7,10.7614237 7,8 C7,5.23857625 9.23857625,3 12,3 C14.7614237,3 17,5.23857625 17,8 C17,10.7614237 14.7614237,13 12,13 Z M8.5,14 L15.5,14 C17.4329966,14 19,15.5670034 19,17.5 L19,20 C19,20.5522847 18.5522847,21 18,21 L6,21 C5.44771525,21 5,20.5522847 5,20 L5,17.5 C5,15.5670034 6.56700338,14 8.5,14 Z M8.5,15 C7.11928813,15 6,16.1192881 6,17.5 L6,20 L18,20 L18,17.5 C18,16.1192881 16.8807119,15 15.5,15 L8.5,15 Z"></path>
  </symbol>

  <symbol id="icon-search" width="16px" height="16px" viewBox="0 0 16 16">
    <path transform="translate(-3.000000, -3.000000)" d="M14.5802007,13.8759872 L19.3040469,18.5998334 L19.3040469,18.5998334 C19.499309,18.7950955 19.499309,19.111678 19.3040469,19.3069402 C19.1087848,19.5022023 18.7922023,19.5022023 18.5969401,19.3069402 L13.8728534,14.5828534 C12.827728,15.4669546 11.4761137,16 10,16 C6.6862915,16 4,13.3137085 4,10 C4,6.6862915 6.6862915,4 10,4 C13.3137085,4 16,6.6862915 16,10 C16,11.4775895 15.4658882,12.8304305 14.5802007,13.8759872 Z M13.6793346,13.3856705 C14.4992767,12.4950669 15,11.3060086 15,10 C15,7.23857625 12.7614237,5 10,5 C7.23857625,5 5,7.23857625 5,10 C5,12.7614237 7.23857625,15 10,15 C11.3046577,15 12.492607,14.500312 13.382906,13.6818778 C13.4071464,13.6160526 13.4456955,13.5543045 13.4985534,13.5014466 C13.5515049,13.4484951 13.6133782,13.4099031 13.6793346,13.3856705 Z"></path>
  </symbol>

  <symbol id="icon-arrow-narrow" width="10px" height="10px" viewBox="0 0 10 10">
    <path d="M1.64644661,8.64644661 C1.45118446,8.84170876 1.45118446,9.15829124 1.64644661,9.35355339 C1.84170876,9.54881554 2.15829124,9.54881554 2.35355339,9.35355339 L5.35355339,6.35355339 C5.54881554,6.15829124 5.54881554,5.84170876 5.35355339,5.64644661 L2.35355339,2.64644661 C2.15829124,2.45118446 1.84170876,2.45118446 1.64644661,2.64644661 C1.45118446,2.84170876 1.45118446,3.15829124 1.64644661,3.35355339 L4.29289322,6 L1.64644661,8.64644661 Z"></path>
  </symbol>

  <symbol id="icon-arrow" width="25px" height="25px" viewBox="0 0 25 25">
    <path d="M3.41421374,13 L23,13 C23.5522847,13 24,12.5522847 24,12 C24,11.4477153 23.5522847,11 23,11 L3.42081532,11 L9.59949492,4.82132039 C9.99001922,4.4307961 9.99001922,3.79763112 9.59949492,3.40710683 C9.20897063,3.01658254 8.57580565,3.01658254 8.18528136,3.40710683 L0.407106769,11.1852814 L0.407106769,11.1852814 C0.395565533,11.1968227 0.384365377,11.2085758 0.373506301,11.2205284 C0.145746956,11.4038215 -8.9901266e-16,11.6848902 -8.60422844e-16,12 C-8.230537e-16,12.3051422 0.136672266,12.5783629 0.35214108,12.7617864 C0.369511818,12.7821831 0.387833714,12.8020471 0.407106769,12.8213202 L0.407106769,12.8213202 L8.18528136,20.5994947 C8.57580565,20.990019 9.20897063,20.990019 9.59949492,20.5994947 C9.99001922,20.2089705 9.99001922,19.5758055 9.59949492,19.1852812 L3.41421374,13 Z" id="path-3"></path>
  </symbol>



  <symbol id="icon-facebook" viewBox="0 0 512 512">
    <path d="m290 469l-94 0 0-213-47 0 0-73 47 0 0-44c0-60 28-96 103-96l64 0 0 72-39 0c-30 0-32 11-32 30l0 36 71 0-9 75-64 0z"/>
  </symbol>

  <symbol id="icon-instagram" viewBox="0 0 512 512">
    <path d="m384 21l-256 0c-60 0-107 47-107 107l0 256c0 60 47 107 107 107l256 0c60 0 107-47 107-107l0-256c0-60-47-107-107-107z m64 363c0 36-28 64-64 64l-256 0c-36 0-64-28-64-64l0-256c0-36 28-64 64-64l256 0c36 0 64 28 64 64z m-192-235c-60 0-107 47-107 107 0 60 47 107 107 107 60 0 107-47 107-107 0-60-47-107-107-107z m0 171c-36 0-64-28-64-64 0-36 28-64 64-64 36 0 64 28 64 64 0 36-28 64-64 64z m160-192c0 18-14 32-32 32-18 0-32-14-32-32 0-18 14-32 32-32 18 0 32 14 32 32z"/>
  </symbol>

  <symbol id="icon-twitter" viewBox="0 0 512 512">
    <path d="m491 109c-17 8-37 13-56 15 19-13 34-32 43-54-19 11-39 20-62 24-17-19-43-30-70-30-54 0-96 43-96 96 0 9 0 15 2 21-81-4-152-42-199-100-8 15-12 32-12 49 0 34 17 64 42 81-15 0-30-4-42-13l0 3c0 46 34 85 76 96-8 0-17 2-25 2-7 0-13 0-17-2 10 38 47 66 89 68-34 25-74 40-119 40-9 0-15 0-24 0 43 28 94 43 148 43 177 0 273-147 273-275 0-4 0-9 0-13 19-15 36-32 49-51z"/>
  </symbol>

  <symbol id="icon-close" viewBox="0 0 512 512">
    <path d="m184 256l-169-169c-20-20-20-52 0-72 20-20 52-20 72 0l169 169 169-169c20-20 52-20 72 0 20 20 20 52 0 72l-169 169 169 169c20 20 20 52 0 72-20 20-52 20-72 0l-169-169-169 169c-20 20-52 20-72 0-20-20-20-52 0-72z"/>
  </symbol>

</svg>
