<?xml version="1.0" encoding="UTF-8" standalone="no"?>
<svg width="128px" height="128px" viewBox="0 0 128 128" version="1.1" xmlns="http://www.w3.org/2000/svg" xmlns:xlink="https://www.w3.org/1999/xlink">
    <g id="placeholder">
        <path d="M126,43 L127,43 L126,42.3650794 L126,43 L126,43 Z M2,43 L1,43 L2,42.3650794 L2,43 L2,43 Z M15.175,34 L64,3 L112.825,34 L109.093713,34 L64,5.36907088 L18.9062866,34 L15.175,34 Z" fill="#2B98DE" fill-rule="nonzero"></path>
        <path d="M6.00269397,34 L121.997306,34 C125.305323,34 128,36.6854853 128,39.9949844 L128,116.005016 C128,119.313373 125.310377,122 121.997306,122 L6.00269397,122 C2.69467723,122 0,119.314515 0,116.005016 L0,39.9949844 C0,36.6866267 2.68962329,34 6.00269397,34 Z M6.00269397,38 C4.89776473,38 4,38.8967645 4,39.9949844 L4,116.005016 C4,117.10231 4.90076235,118 6.00269397,118 L121.997306,118 C123.102235,118 124,117.103235 124,116.005016 L124,39.9949844 C124,38.8976897 123.099238,38 121.997306,38 L6.00269397,38 Z" fill="#2B98DE" fill-rule="nonzero"></path>
        <path d="M44.387301,102.080736 L26.4680374,120 L32.1248917,120 L76.8867035,75.2381882 C77.6663134,74.4585783 78.9262439,74.4582065 79.7062256,75.2381882 L123.407335,118.939297 C124.537086,118.158468 125.385877,117.000033 125.771297,115.646405 L82.5346527,72.4097611 C80.1922001,70.0673084 76.3996099,70.0684276 74.0582764,72.4097611 L47.2157281,99.2523093 L37.7246389,89.7612202 C35.3749962,87.4115774 31.5782144,87.4142762 29.2312704,89.7612202 L3,115.992491 C3.41024772,117.331863 4.27659043,118.471884 5.41790931,119.231436 L32.0596976,92.5896473 C32.8454438,91.8039011 34.109567,91.8030025 34.8962118,92.5896473 L44.387301,102.080736 Z" fill="#2B98DE"></path>
        <path d="M106,56 C106,58.2074305 104.207431,60 102,60 C99.7925695,60 98,58.2074305 98,56 C98,53.7925695 99.7925695,52 102,52 C104.207431,52 106,53.7925695 106,56 L110,56 C110,51.5834305 106.416569,48 102,48 C97.5834305,48 94,51.5834305 94,56 C94,60.4165695 97.5834305,64 102,64 C106.416569,64 110,60.4165695 110,56 L106,56 Z" fill="#2B98DE" fill-rule="nonzero"></path>
        <circle fill="#2B98DE" cx="64" cy="5" r="4"></circle>
    </g>
</svg>